<?xml version="1.0" standalone="no"?>
<!DOCTYPE svg PUBLIC "-//W3C//DTD SVG 20010904//EN"
 "http://www.w3.org/TR/2001/REC-SVG-20010904/DTD/svg10.dtd">
<svg version="1.0" xmlns="http://www.w3.org/2000/svg"
 width="499.000000pt" height="500.000000pt" viewBox="0 0 499.000000 500.000000"
 preserveAspectRatio="xMidYMid meet">

<g transform="translate(0.000000,500.000000) scale(0.100000,-0.100000)"
fill="#000000" stroke="none">
<path d="M2289 4269 c-34 -37 -46 -88 -30 -139 13 -45 47 -70 96 -70 31 0 39
5 65 47 33 52 37 90 15 133 -34 66 -99 79 -146 29z m94 -72 c25 -33 17 -93
-15 -102 -42 -14 -94 38 -69 69 5 6 7 22 4 35 -12 48 45 46 80 -2z"/>
<path d="M2784 4288 c-33 -16 -64 -79 -64 -133 0 -25 10 -69 21 -96 19 -43 20
-53 9 -74 -7 -14 -11 -28 -7 -31 13 -14 35 6 42 38 5 22 28 53 71 94 62 59 64
62 64 112 0 44 -4 53 -31 76 -32 27 -69 32 -105 14z m95 -80 c14 -24 14 -28
-3 -47 -23 -25 -83 -54 -96 -46 -17 10 -12 92 6 110 25 25 75 16 93 -17z"/>
<path d="M2635 4220 c-14 -22 -20 -149 -12 -245 6 -79 5 -117 -9 -182 -20 -99
-15 -185 15 -222 77 -98 97 -213 62 -364 -11 -51 -23 -101 -25 -112 -11 -61
-19 -84 -27 -79 -5 3 -9 1 -9 -4 0 -5 16 -22 36 -37 36 -27 36 -27 29 -4 -13
40 -7 121 14 206 22 85 27 219 12 335 -4 31 -3 55 1 52 12 -8 36 -99 44 -167
l7 -62 18 40 c11 23 19 64 19 96 0 61 -10 76 -66 98 -67 27 -114 104 -114 189
0 27 8 89 19 139 17 83 18 96 4 174 -8 46 -12 101 -10 122 5 38 3 45 -8 27z"/>
<path d="M2525 4167 c-4 -26 -18 -64 -31 -83 -13 -19 -24 -38 -24 -42 1 -8 36
-52 43 -52 2 0 10 19 17 43 15 48 19 109 10 152 -7 28 -7 27 -15 -18z"/>
<path d="M2133 4156 c-41 -40 -43 -46 -43 -100 0 -32 4 -65 10 -75 8 -16 2
-20 -45 -30 -57 -13 -85 -38 -85 -75 0 -19 1 -19 23 2 29 28 63 40 134 47 49
5 65 3 103 -17 39 -20 50 -34 82 -98 20 -41 41 -74 48 -72 6 1 9 -2 5 -8 -6
-10 34 -30 61 -30 9 0 29 14 46 30 16 17 31 30 34 30 2 0 4 -12 5 -27 0 -21 4
-15 14 22 8 28 14 79 14 115 l-1 65 -13 -43 c-22 -69 -56 -120 -91 -137 -47
-22 -54 -19 -54 25 0 22 5 40 10 40 6 0 19 15 30 33 26 42 26 101 1 126 -19
19 -79 41 -114 41 -65 0 -113 52 -126 136 l-6 44 -42 -44z m43 -105 c35 -40
53 -50 145 -75 31 -9 62 -22 69 -30 18 -23 8 -50 -24 -61 -25 -9 -31 -6 -55
22 -30 36 -67 53 -117 53 -61 0 -110 80 -72 118 17 17 17 17 54 -27z"/>
<path d="M2991 4149 c-9 -28 -39 -68 -101 -133 -102 -108 -150 -191 -157 -275
-4 -45 -2 -61 13 -79 17 -21 23 -22 69 -13 31 6 54 6 60 0 14 -14 84 -11 120
6 39 19 92 72 81 82 -4 4 -15 2 -24 -5 -84 -61 -229 -53 -220 11 4 29 101 68
184 75 57 4 63 3 97 -28 31 -26 37 -39 37 -70 0 -48 -38 -96 -97 -122 -47 -21
-51 -29 -27 -48 72 -61 198 91 165 200 -14 47 -68 96 -122 110 -59 16 -156 -2
-220 -42 -27 -16 -52 -28 -55 -25 -12 12 18 75 49 104 l32 31 115 -8 c109 -7
179 -25 194 -49 12 -19 26 -12 26 12 0 42 -35 67 -94 67 -39 0 -48 18 -21 40
34 28 10 114 -48 178 -29 32 -42 28 -56 -19z m69 -78 c17 -33 11 -58 -21 -85
-33 -28 -86 -35 -107 -14 -10 10 -1 24 40 65 57 58 72 63 88 34z m-273 -403
c-3 -8 -6 -5 -6 6 -1 11 2 17 5 13 3 -3 4 -12 1 -19z"/>
<path d="M1973 4068 c-13 -48 -10 -58 18 -58 18 0 20 4 13 33 -14 66 -19 70
-31 25z"/>
<path d="M3200 4075 c0 -11 -3 -30 -6 -41 -4 -16 0 -23 15 -27 18 -4 20 -2 14
21 -3 15 -10 36 -14 47 l-8 20 -1 -20z"/>
<path d="M3301 3895 c-1 -17 -10 -48 -21 -69 -14 -28 -17 -44 -10 -57 6 -10
10 -38 10 -63 l0 -46 28 11 c25 10 135 7 207 -6 17 -3 62 -7 100 -9 39 -2 97
-12 130 -21 33 -10 76 -21 95 -26 70 -16 112 -39 106 -56 -5 -12 -3 -13 7 -5
10 8 20 7 41 -3 16 -8 35 -15 42 -15 29 0 75 -57 89 -110 1 -3 5 -13 10 -24 5
-11 4 -26 -4 -37 -6 -11 -9 -19 -6 -19 15 0 45 70 45 106 0 105 -126 192 -366
253 -120 31 -289 52 -384 49 l-85 -3 -5 -30 c-10 -52 -18 2 -13 85 3 41 0 86
-6 100 l-10 25 0 -30z"/>
<path d="M1866 3852 c-3 -27 -4 -62 -1 -78 6 -32 -10 -66 -22 -48 -23 32 -160
34 -343 3 -382 -64 -590 -176 -590 -316 0 -40 19 -103 31 -103 6 0 7 9 4 21
-6 18 -5 20 14 10 20 -11 29 -31 14 -31 -5 0 -14 -4 -21 -9 -45 -28 154 -217
413 -394 254 -173 399 -217 825 -252 65 -5 41 4 -85 30 -196 42 -442 142 -656
266 -239 139 -363 236 -415 325 -23 40 -35 118 -21 141 3 5 1 15 -5 23 -8 12
-9 11 -4 -4 5 -13 2 -17 -8 -13 -8 3 -17 -1 -20 -9 -3 -9 -1 -12 4 -9 6 3 10
1 10 -4 0 -6 -4 -11 -10 -11 -5 0 -10 -7 -10 -15 0 -8 -5 -15 -10 -15 -17 0 0
51 30 93 22 30 29 34 34 21 3 -8 4 -20 0 -25 -14 -23 6 -6 22 19 15 23 15 25
1 13 -11 -9 -17 -10 -17 -2 0 10 14 15 34 12 13 -3 36 20 30 30 -3 5 1 6 9 3
8 -3 20 3 28 13 13 17 13 17 -6 3 -19 -14 -19 -14 -6 2 7 10 17 16 21 13 5 -3
44 9 87 26 101 41 127 48 253 70 58 10 128 23 155 29 28 6 64 7 80 4 42 -10
98 -5 107 9 6 9 12 8 21 -5 7 -9 24 -19 38 -23 22 -5 24 -3 25 32 1 21 3 56 4
78 3 35 -16 104 -32 120 -3 3 -8 -16 -12 -43z"/>
<path d="M2063 3850 c-63 -38 -95 -160 -59 -228 32 -61 129 -122 194 -122 9 0
23 -9 30 -21 7 -11 34 -30 58 -41 25 -11 43 -22 41 -25 -3 -3 -24 -9 -47 -14
-47 -11 -146 8 -208 40 -53 27 -125 108 -147 165 -17 45 -20 47 -49 42 -17 -3
-87 -10 -156 -16 -398 -35 -651 -154 -541 -254 14 -13 21 -14 27 -5 5 8 3 10
-7 5 -8 -4 -6 -1 4 7 9 8 17 18 17 24 0 14 158 93 185 93 14 0 46 7 72 16 26
9 68 18 93 20 25 2 95 8 155 14 61 6 119 12 129 13 13 1 26 -11 40 -39 60
-117 138 -182 243 -204 144 -29 175 -21 211 49 13 26 30 40 67 55 60 25 74 37
108 100 30 54 34 104 12 151 l-13 30 -1 -36 c-1 -52 -54 -127 -111 -157 -77
-40 -200 -17 -200 38 0 11 -11 16 -40 17 -21 1 -48 7 -59 13 -36 19 -73 78
-79 125 -4 41 -2 47 31 80 36 36 71 44 108 25 26 -14 51 -67 44 -90 -12 -38
-65 -17 -80 30 -11 34 -25 22 -25 -21 0 -32 6 -47 30 -70 31 -32 51 -32 94 -5
18 11 24 8 56 -25 45 -48 82 -58 127 -34 18 10 33 21 33 25 0 4 -22 10 -50 14
-67 9 -106 44 -147 133 -18 39 -43 79 -55 87 -31 22 -96 20 -135 -4z"/>
<path d="M3270 3623 c-42 -116 -122 -183 -220 -183 -51 0 -122 33 -133 62 -9
24 -25 -5 -56 -102 -39 -119 -39 -122 2 -118 29 3 32 6 34 37 2 46 23 67 53
51 39 -21 148 -30 177 -15 57 30 120 95 148 154 25 50 34 60 50 56 11 -3 56
-10 100 -16 44 -6 85 -15 91 -20 6 -5 25 6 48 30 23 24 34 41 27 45 -6 4 -73
13 -150 20 -76 7 -144 16 -150 20 -7 4 -15 -4 -21 -21z"/>
<path d="M3608 3563 c-35 -36 -133 -191 -126 -199 10 -10 121 78 136 107 15
30 21 34 56 33 24 -1 44 -8 51 -18 7 -9 19 -16 27 -16 15 0 60 -34 55 -41 -2
-2 14 -19 35 -38 l38 -33 0 36 c0 51 -27 113 -60 136 -26 19 -150 70 -168 70
-4 0 -24 -17 -44 -37z"/>
<path d="M833 3543 c-85 -110 -105 -181 -107 -382 0 -80 -3 -136 -4 -127 -3
15 -11 17 -47 13 -38 -5 -44 -3 -47 15 -4 26 -74 53 -82 32 -9 -23 -23 -16
-29 16 -7 33 -23 40 -30 13 -4 -17 -5 -17 -6 0 0 9 -6 17 -12 17 -6 0 -8 -8
-4 -20 5 -15 0 -21 -19 -26 -14 -3 -30 -3 -35 1 -6 3 -11 1 -11 -4 0 -6 10
-11 23 -12 19 -1 19 -2 -5 -9 -32 -9 -86 2 -78 16 3 5 -4 10 -16 12 -14 2 -27
-6 -38 -23 -9 -14 -21 -23 -27 -20 -5 4 -12 -2 -16 -12 -4 -10 -13 -24 -20
-31 -7 -7 -13 -22 -13 -33 0 -10 -5 -19 -11 -19 -6 0 -9 7 -6 15 4 8 2 17 -3
20 -6 4 -10 -27 -10 -79 0 -62 -4 -89 -15 -100 -8 -8 -15 -22 -15 -32 0 -10
-7 -25 -16 -35 -12 -13 -17 -49 -20 -160 -3 -78 -9 -150 -15 -160 -11 -22 -6
-159 7 -180 5 -8 9 -27 10 -44 11 -176 39 -388 44 -340 2 11 6 -9 11 -45 5
-36 13 -66 18 -68 5 -2 15 -25 22 -52 7 -27 16 -47 21 -44 5 3 6 -5 3 -19 -5
-17 -2 -26 10 -31 10 -3 15 -12 11 -21 -3 -8 -1 -17 4 -20 6 -4 10 -15 10 -26
0 -10 5 -19 10 -19 6 0 10 -12 10 -27 0 -14 3 -23 7 -20 6 7 18 -10 45 -63 7
-14 18 -31 25 -38 7 -7 13 -22 13 -31 0 -10 15 -35 34 -56 19 -20 40 -50 46
-66 7 -16 16 -29 21 -29 5 0 9 -5 9 -10 0 -16 64 -109 75 -110 16 -1 55 -37
55 -51 0 -7 3 -9 6 -6 9 8 44 -37 44 -56 0 -18 66 -76 102 -89 15 -5 30 -18
33 -27 8 -28 86 -102 107 -104 10 -1 39 -21 64 -44 25 -24 51 -43 59 -43 8 0
21 -13 30 -29 10 -21 29 -34 64 -46 27 -9 70 -32 95 -51 25 -19 50 -34 56 -34
15 0 107 -48 114 -59 4 -5 23 -15 44 -21 20 -7 51 -18 67 -25 75 -33 137 -55
145 -50 5 3 11 1 15 -5 3 -5 16 -10 29 -10 12 0 26 -4 32 -9 5 -5 38 -17 74
-26 93 -24 98 -25 170 -30 36 -3 80 -9 99 -15 19 -5 37 -8 39 -5 3 2 13 0 23
-6 14 -7 19 -6 19 3 0 10 2 10 9 -1 14 -21 707 -22 736 0 6 4 51 11 100 15 50
3 95 10 100 14 6 5 37 11 70 15 33 5 75 15 95 23 19 9 38 17 43 18 4 1 10 3
15 4 4 2 12 4 17 5 23 4 102 27 120 34 11 5 55 25 99 45 43 20 84 36 91 36 7
0 18 7 25 15 7 8 19 15 27 15 8 0 29 11 47 25 18 14 40 25 48 25 8 0 28 12 44
26 16 14 52 38 79 54 28 16 66 44 86 62 20 18 58 51 84 73 27 22 54 46 61 53
7 6 16 12 21 12 4 0 44 34 88 75 43 41 87 77 97 80 9 4 20 16 24 28 10 31 47
87 59 87 22 1 67 51 60 68 -3 9 -3 14 0 10 4 -3 23 12 43 35 20 23 40 43 44
45 4 2 10 19 14 37 3 19 16 45 28 57 11 13 21 29 22 36 3 38 5 41 21 35 11 -4
14 -3 9 6 -4 6 2 28 13 47 12 19 21 45 21 56 0 12 3 18 7 15 3 -4 12 1 20 11
9 11 12 11 7 2 -5 -12 -4 -12 6 -3 15 13 4 36 -13 27 -7 -3 -2 3 11 13 14 11
24 33 27 58 3 21 14 47 25 57 12 11 20 32 21 51 0 28 2 29 10 12 7 -15 8 -13
3 10 -9 38 -6 75 5 89 5 6 8 27 8 46 -1 28 2 34 16 32 12 -2 17 4 17 23 0 14
4 24 8 21 4 -2 9 37 10 87 0 51 2 124 3 162 1 39 -1 135 -4 215 -4 80 -7 149
-7 153 0 5 -4 6 -9 2 -9 -5 -7 34 4 89 5 24 -11 8 -19 -19 -3 -11 -4 -7 -2 9
2 16 -2 43 -10 61 -7 18 -11 35 -8 38 3 3 2 21 -1 41 -6 27 -12 36 -27 36 -17
0 -18 3 -9 14 8 10 9 16 1 21 -5 3 -10 0 -10 -7 0 -7 -6 -4 -12 6 -8 15 -8 21
0 24 24 8 11 32 -25 49 -21 9 -44 23 -51 30 -7 7 -17 13 -22 13 -4 0 -11 12
-15 28 l-7 27 -19 -24 c-11 -13 -23 -20 -27 -16 -4 4 -1 10 6 12 21 8 13 23
-12 23 -14 0 -28 4 -31 10 -9 15 -105 13 -106 -2 0 -7 -4 -3 -9 10 -6 13 -18
22 -30 22 -11 0 -24 8 -27 18 -4 9 -13 23 -21 31 -7 7 -11 19 -8 26 16 42 -44
306 -79 350 -12 15 -12 12 2 -15 16 -30 18 -61 17 -225 -1 -210 -12 -273 -75
-417 -89 -204 -256 -424 -423 -557 -287 -228 -588 -338 -989 -361 -88 -5 -167
-6 -175 -1 -8 5 27 11 89 15 443 29 779 152 1039 378 100 88 120 121 34 57
-246 -182 -522 -282 -1079 -394 -541 -109 -951 -51 -1305 184 -106 70 -345
305 -422 416 -158 226 -242 477 -242 720 -1 132 8 165 65 236 17 21 28 39 26
39 -3 0 -18 -17 -34 -37z m3562 -453 c3 -5 1 -10 -4 -10 -6 0 -11 5 -11 10 0
6 2 10 4 10 3 0 8 -4 11 -10z m242 -162 c-3 -8 -6 -5 -6 6 -1 11 2 17 5 13 3
-3 4 -12 1 -19z m-397 -1318 l0 -60 49 0 c28 0 52 -3 54 -7 3 -5 2 -23 0 -40
-5 -32 -7 -33 -54 -33 l-50 0 3 -127 3 -128 28 -9 c19 -7 34 -7 46 1 23 15 31
8 31 -28 0 -35 -24 -49 -82 -49 -45 0 -78 19 -97 57 -6 13 -11 76 -11 152 l0
130 -32 3 c-30 3 -33 6 -36 41 -3 35 -2 37 27 37 30 0 31 2 31 45 0 38 4 46
28 59 53 29 62 23 62 -44z m-3240 -68 c19 -9 45 -32 57 -51 22 -32 23 -44 23
-192 l0 -159 -40 0 -40 0 0 135 c0 144 -8 176 -47 194 -32 15 -48 14 -83 -4
-50 -26 -60 -59 -60 -200 l0 -125 -40 0 -40 0 -2 185 c-1 102 -2 193 -2 202
-1 20 24 28 60 19 18 -5 24 -13 24 -32 l0 -26 18 21 c42 50 112 64 172 33z
m417 -1 c59 -27 96 -86 101 -162 l4 -59 -151 0 c-165 0 -166 0 -131 -57 38
-62 130 -82 202 -44 41 23 48 20 48 -24 0 -44 -39 -60 -147 -60 -76 0 -84 2
-120 31 -49 39 -76 94 -81 164 -7 90 38 168 121 209 52 26 99 26 154 2z m801
13 c16 -5 22 -14 22 -34 0 -47 -8 -57 -41 -52 -17 2 -42 -2 -56 -9 -42 -22
-53 -65 -53 -199 l0 -120 -40 0 -40 0 0 174 c0 95 -3 188 -6 205 l-6 31 46 0
c43 0 46 -2 46 -27 l0 -26 23 21 c19 18 59 39 77 41 3 1 15 -2 28 -5z m329
-19 c75 -35 113 -95 113 -182 0 -135 -81 -223 -204 -223 -66 0 -101 12 -140
48 -44 41 -66 98 -66 173 0 89 37 149 113 184 66 31 118 31 184 0z m682 -2
c52 -38 61 -73 61 -240 l0 -153 -39 0 -40 0 -3 146 c-3 146 -3 146 -31 170
-49 42 -110 26 -142 -36 -11 -21 -15 -63 -15 -155 l0 -125 -40 0 -40 0 0 174
c0 95 -3 188 -6 205 l-7 32 44 -3 c37 -3 44 -7 49 -28 4 -17 8 -21 14 -12 4 7
24 21 44 32 45 25 112 21 151 -7z m372 15 c80 -27 129 -96 129 -183 l0 -45
-151 0 -151 0 7 -27 c3 -16 19 -41 35 -57 39 -40 117 -47 180 -17 24 12 45 21
47 21 2 0 3 -18 3 -39 0 -36 -3 -40 -40 -55 -22 -9 -68 -16 -103 -16 -77 0
-128 27 -171 88 -25 35 -31 55 -34 112 -4 60 -1 74 24 120 21 39 41 59 79 81
54 31 92 36 146 17z m429 -8 c19 -10 21 -18 17 -47 -8 -46 -10 -47 -46 -29
-42 22 -97 20 -121 -4 -36 -36 -28 -44 83 -90 89 -37 114 -67 102 -128 -14
-78 -66 -113 -161 -111 -60 1 -124 21 -124 37 0 5 3 23 6 39 l6 30 36 -19 c45
-23 125 -24 146 -2 34 33 11 61 -77 94 -82 31 -108 56 -114 111 -4 39 -1 50
23 78 15 19 42 40 59 48 35 16 130 12 165 -7z m-2371 -141 l-3 -152 28 -23
c45 -39 114 -27 141 25 11 23 15 63 15 166 l0 135 43 0 42 0 0 -205 0 -205
-37 0 c-31 0 -38 4 -38 20 0 11 -4 20 -10 20 -5 0 -10 -4 -10 -8 0 -17 -63
-44 -104 -44 -53 -1 -103 26 -129 69 -15 26 -19 62 -24 192 l-6 161 47 0 47 0
-2 -151z"/>
<path d="M1264 1446 c-58 -58 -50 -66 71 -66 109 0 115 2 94 43 -19 36 -52 57
-92 57 -31 0 -46 -7 -73 -34z"/>
<path d="M2405 1471 c-66 -29 -96 -130 -60 -204 30 -63 111 -85 173 -47 77 47
82 187 8 235 -30 20 -93 28 -121 16z"/>
<path d="M3471 1449 c-17 -17 -31 -39 -31 -50 0 -18 8 -19 106 -19 105 0 105
0 99 23 -4 12 -20 34 -36 50 -42 39 -97 38 -138 -4z"/>
<path d="M3906 3463 c7 -21 14 -54 14 -73 l2 -35 13 35 c20 51 18 77 -7 94
-33 24 -37 20 -22 -21z"/>
<path d="M1082 3429 c-33 -54 -29 -90 16 -141 63 -75 200 -176 216 -161 3 3 8
-2 12 -11 4 -11 10 -14 18 -7 17 14 61 -16 47 -32 -6 -9 12 -26 64 -59 63 -39
76 -44 86 -32 10 12 9 13 -5 8 -9 -3 -16 -1 -16 5 0 6 -6 11 -14 11 -22 0
-107 51 -100 61 3 5 7 9 10 9 3 0 2 -4 -1 -10 -3 -5 -2 -10 4 -10 5 0 12 4 15
8 16 26 127 5 153 -28 7 -8 13 -12 13 -8 0 4 21 1 48 -7 26 -8 54 -12 63 -10
9 3 27 -7 43 -25 20 -23 33 -29 49 -25 17 5 19 4 7 -4 -12 -9 -10 -11 10 -11
23 -1 24 -2 8 -14 -10 -7 -18 -18 -18 -24 0 -6 -6 -9 -14 -6 -9 3 -15 -4 -19
-23 -7 -35 -4 -39 43 -63 52 -27 64 -25 35 4 -21 21 -23 28 -14 54 11 31 44
47 73 36 10 -4 31 7 56 29 44 40 105 74 164 92 37 11 33 12 -75 19 -168 10
-240 23 -379 71 -69 24 -176 55 -239 69 -200 47 -313 127 -330 234 l-6 37 -23
-36z m813 -479 c3 -5 1 -10 -4 -10 -6 0 -11 5 -11 10 0 6 2 10 4 10 3 0 8 -4
11 -10z"/>
<path d="M3736 3436 c-3 -14 -18 -33 -32 -42 -23 -16 -28 -16 -58 -2 -32 16
-35 15 -96 -18 -80 -43 -128 -89 -192 -184 -28 -41 -62 -88 -77 -104 -14 -16
-21 -27 -16 -24 98 43 136 66 141 83 7 22 74 90 124 125 26 19 40 22 81 17 37
-5 63 -1 99 13 l50 20 11 -21 c6 -12 9 -40 7 -64 -2 -34 0 -41 12 -37 9 4 3
-10 -14 -34 l-29 -39 40 38 c68 64 69 72 32 160 -17 42 -35 74 -40 72 -9 -6
-22 13 -26 39 -5 29 -10 30 -17 2z"/>
<path d="M4220 3432 c0 -172 -321 -478 -670 -640 -296 -136 -519 -192 -850
-214 -253 -17 -635 10 -826 58 -47 12 -23 -5 29 -21 106 -32 486 -134 637
-170 239 -58 337 -53 512 29 302 139 461 220 617 311 251 147 349 214 452 313
133 126 176 228 133 318 -22 46 -34 51 -34 16z"/>
<path d="M1721 3416 c-25 -62 22 -136 85 -136 19 0 33 -3 33 -7 -5 -32 5 -59
32 -84 34 -32 67 -36 132 -18 31 8 50 7 100 -9 34 -11 85 -25 112 -33 28 -7
55 -18 60 -24 6 -7 37 -18 69 -25 32 -6 83 -20 112 -31 30 -10 54 -15 54 -11
-1 15 -133 109 -204 144 -68 34 -232 83 -296 89 -14 1 -38 -4 -55 -10 -24 -11
-35 -10 -55 1 -28 15 -39 61 -19 84 17 21 -24 65 -43 46 -28 -28 -85 -7 -101
38 -3 10 -8 6 -16 -14z"/>
<path d="M3986 3423 c-18 -64 -17 -83 3 -109 29 -37 26 -50 -5 -25 -14 11 -31
18 -37 15 -7 -2 -29 -31 -51 -65 -45 -70 -96 -115 -147 -130 -20 -6 -36 -17
-36 -25 0 -18 -3 -19 75 14 37 16 79 32 93 35 24 6 198 141 213 165 3 5 -1 9
-9 9 -8 0 -12 -4 -9 -9 3 -4 -2 -5 -10 -2 -14 5 -14 8 -1 21 19 18 19 27 1 43
-8 6 -17 26 -19 43 -3 26 -4 24 -5 -11 -2 -50 -17 -48 -26 3 -8 39 -22 53 -30
28z"/>
<path d="M855 3379 c-10 -55 11 -161 44 -227 36 -71 70 -108 176 -187 42 -32
100 -79 128 -104 212 -191 429 -350 651 -478 187 -108 226 -120 415 -133 148
-9 473 -3 714 14 31 2 57 1 57 -2 0 -4 -107 -20 -237 -37 -244 -30 -471 -39
-643 -23 l-75 6 71 -23 c95 -31 286 -71 406 -84 206 -23 359 -9 618 57 362 93
599 230 840 485 84 89 179 230 210 315 21 55 53 192 47 198 -4 4 -133 -163
-216 -279 -154 -215 -440 -467 -647 -570 -81 -41 -182 -69 -228 -65 -27 3 -21
6 41 26 110 34 262 115 360 191 81 63 134 111 121 111 -3 0 -65 -29 -139 -64
-258 -124 -356 -153 -606 -181 -76 -9 -168 -22 -205 -30 -121 -27 -346 -13
-522 31 -74 18 -90 38 -23 30 141 -19 292 -27 367 -20 97 8 109 3 -135 63 -88
22 -181 47 -205 56 -25 9 -108 32 -185 51 -381 96 -620 204 -860 391 -162 127
-290 309 -316 448 -13 73 -16 77 -24 34z"/>
<path d="M1502 3377 c-12 -33 -11 -40 6 -62 15 -18 21 -21 25 -11 3 7 2 17 -3
22 -5 5 -10 27 -12 48 l-3 40 -13 -37z"/>
<path d="M1367 3384 c-11 -34 -11 -94 -1 -104 10 -10 139 -60 156 -60 18 0
-65 109 -93 120 -16 7 -29 16 -29 19 0 4 -6 16 -14 26 -13 18 -14 18 -19 -1z"/>
<path d="M1210 3356 c0 -2 8 -10 18 -17 15 -13 16 -12 3 4 -13 16 -21 21 -21
13z"/>
<path d="M3161 3262 c-16 -30 -54 -38 -83 -18 -24 17 -87 20 -201 9 -77 -7
-86 -15 -106 -111 -11 -54 0 -227 16 -243 4 -4 26 -10 48 -13 29 -5 35 -4 20
3 l-20 10 20 1 c11 1 15 4 9 6 -7 3 -9 20 -5 47 8 53 7 66 -7 97 l-11 25 -1
-25 c0 -14 -5 -32 -10 -40 -7 -11 -10 -4 -10 28 0 23 4 42 9 42 5 0 8 8 7 18
-7 42 13 59 79 66 35 3 73 2 86 -2 13 -5 53 -10 89 -11 55 -2 69 1 84 18 20
22 24 69 8 97 -9 16 -11 15 -21 -4z"/>
<path d="M3316 3213 c-6 -14 -5 -15 5 -6 7 7 10 15 7 18 -3 3 -9 -2 -12 -12z"/>
<path d="M4040 3189 c-19 -17 -58 -47 -87 -67 -69 -49 -213 -162 -213 -167 0
-10 79 32 140 74 69 48 176 144 191 173 13 24 10 23 -31 -13z"/>
<path d="M3451 3184 c0 -11 3 -14 6 -6 3 7 2 16 -1 19 -3 4 -6 -2 -5 -13z"/>
<path d="M3493 3180 c-3 -11 -9 -17 -14 -14 -5 3 -9 -2 -9 -10 0 -32 34 -12
37 22 3 27 -7 29 -14 2z"/>
<path d="M3631 3179 c-1 -9 -11 -29 -23 -44 -19 -24 -26 -27 -62 -22 -46 7
-178 -23 -235 -53 -20 -10 -72 -48 -116 -85 -125 -105 -218 -142 -332 -132
-35 2 -63 2 -63 -2 0 -17 70 -72 121 -95 54 -25 134 -46 114 -29 -6 4 -11 14
-10 20 0 15 75 55 75 41 0 -5 5 -6 11 -2 8 5 10 -1 7 -20 -7 -33 3 -40 28 -20
10 9 12 12 4 8 -8 -4 -5 4 8 18 12 13 22 30 22 36 0 7 7 12 16 12 8 0 13 -4
10 -9 -4 -5 0 -11 6 -14 17 -6 50 12 43 23 -3 5 3 8 12 7 24 -1 73 32 73 50 0
10 6 12 21 8 15 -5 19 -4 15 4 -4 6 -2 11 5 11 7 0 5 6 -6 14 -10 7 -26 12
-34 11 -9 -1 -10 0 -4 2 7 3 16 15 19 29 9 36 51 64 95 64 32 0 37 -3 32 -17
-6 -16 -5 -16 10 -4 11 9 17 10 17 2 0 -6 -4 -11 -9 -11 -5 0 -11 -9 -14 -21
-5 -19 -4 -19 16 -6 12 8 48 29 80 47 31 17 57 38 57 47 0 8 4 11 10 8 5 -3 7
0 4 8 -2 7 0 26 5 40 7 18 7 27 1 27 -6 0 -8 11 -6 25 3 14 1 23 -4 20 -4 -3
-11 1 -13 7 -4 9 -6 7 -6 -3z m-357 -264 c-4 -8 -10 -15 -15 -15 -4 0 -6 7 -3
15 4 8 10 15 15 15 4 0 6 -7 3 -15z m84 -22 c-10 -2 -26 -2 -35 0 -10 3 -2 5
17 5 19 0 27 -2 18 -5z m-118 -17 c0 -3 -4 -8 -10 -11 -5 -3 -10 -1 -10 4 0 6
5 11 10 11 6 0 10 -2 10 -4z m-9 -55 c7 -16 6 -20 -4 -15 -27 15 -37 27 -31
36 9 14 26 4 35 -21z"/>
<path d="M320 3150 c20 -13 50 -13 50 0 0 6 -15 10 -32 10 -25 0 -29 -3 -18
-10z"/>
<path d="M1730 3156 c0 -2 7 -7 16 -10 8 -3 12 -2 9 4 -6 10 -25 14 -25 6z"/>
<path d="M3800 3079 c-25 -16 -76 -46 -115 -66 -38 -19 -129 -71 -201 -113
-72 -43 -168 -97 -214 -120 -45 -23 -80 -43 -78 -46 7 -6 184 57 298 106 139
60 216 109 300 194 80 81 82 93 10 45z"/>
<path d="M675 3090 c-3 -5 1 -10 9 -10 9 0 16 5 16 10 0 6 -4 10 -9 10 -6 0
-13 -4 -16 -10z"/>
<path d="M855 3070 c42 -217 161 -363 421 -521 140 -84 553 -250 684 -273 l35
-7 -30 17 c-201 110 -410 248 -539 356 -220 184 -416 331 -416 311 0 -4 31
-44 68 -88 78 -92 190 -180 372 -291 71 -44 129 -82 130 -86 1 -21 -269 123
-364 194 -69 52 -247 250 -319 357 -49 72 -51 73 -42 31z"/>
<path d="M3206 3078 c3 -4 -12 -26 -33 -50 -35 -41 -35 -41 15 7 29 27 52 50
52 52 0 1 -9 1 -19 0 -11 0 -18 -5 -15 -9z"/>
<path d="M2183 3010 c-102 -21 -227 -100 -238 -150 -4 -16 -18 -39 -32 -50
-14 -11 -22 -20 -17 -20 5 0 48 -11 96 -24 63 -18 85 -21 82 -11 -3 7 -1 16 5
20 6 3 12 1 12 -4 1 -6 2 -16 3 -23 1 -16 62 -33 212 -58 170 -28 321 -35 491
-21 176 14 190 18 123 41 -54 18 -116 71 -152 128 -27 45 -202 129 -328 160
-66 15 -208 22 -257 12z m74 -266 c-3 -3 -12 -4 -19 -1 -8 3 -5 6 6 6 11 1 17
-2 13 -5z m0 -20 c-3 -3 -12 -4 -19 -1 -8 3 -5 6 6 6 11 1 17 -2 13 -5z"/>
<path d="M2880 3010 c0 -5 5 -10 11 -10 5 0 7 5 4 10 -3 6 -8 10 -11 10 -2 0
-4 -4 -4 -10z"/>
<path d="M3054 2984 c4 -10 4 -15 1 -12 -4 4 -25 0 -48 -8 -29 -10 -42 -11
-48 -3 -4 8 -9 8 -13 1 -10 -16 24 -51 42 -44 10 3 13 1 8 -6 -10 -17 -1 -15
54 13 28 14 50 30 50 35 0 6 0 13 0 18 0 4 -6 7 -13 7 -6 0 -18 5 -26 9 -11 7
-13 5 -7 -10z m46 -8 c0 -2 -7 -7 -16 -10 -8 -3 -12 -2 -9 4 6 10 25 14 25 6z"/>
<path d="M3463 2965 c0 -8 4 -12 9 -9 5 3 6 10 3 15 -9 13 -12 11 -12 -6z"/>
<path d="M1615 2930 c11 -18 63 -40 80 -34 14 6 13 8 -5 21 -12 8 -27 12 -35
9 -8 -3 -17 -1 -20 4 -4 6 -11 10 -16 10 -6 0 -7 -5 -4 -10z"/>
<path d="M1749 2923 c0 -4 -2 -15 -4 -24 -1 -9 4 -16 11 -16 8 0 14 4 14 9 0
4 -6 8 -12 8 -10 0 -9 3 1 9 9 6 10 11 2 15 -6 4 -11 4 -12 -1z"/>
<path d="M3840 2794 c-202 -124 -428 -238 -735 -368 -73 -31 -62 -32 68 -5 72
14 173 48 338 115 129 51 240 94 246 94 13 0 218 212 233 241 6 10 9 19 8 19
-2 -1 -73 -44 -158 -96z"/>
<path d="M3068 2713 c7 -3 16 -2 19 1 4 3 -2 6 -13 5 -11 0 -14 -3 -6 -6z"/>
<path d="M1100 2593 c0 -19 164 -195 249 -268 250 -213 449 -296 741 -309
l115 -5 -60 14 c-33 7 -81 16 -107 19 -55 7 -156 43 -241 88 -186 97 -568 351
-664 441 -18 17 -33 26 -33 20z"/>
<path d="M1570 2326 c0 -10 159 -111 238 -150 124 -63 240 -105 386 -142 137
-35 143 -36 290 -31 83 2 180 11 216 18 l65 14 -50 2 c-332 16 -518 56 -850
183 -55 21 -136 51 -180 68 -44 17 -88 33 -97 37 -10 4 -18 4 -18 1z"/>
</g>
</svg>
